<?xml version="1.0" encoding="utf-8"?>
<svg version="1.1" id="Слой_1" xmlns="http://www.w3.org/2000/svg" xmlns:xlink="http://www.w3.org/1999/xlink" x="0px" y="0px"
	 viewBox="0 0 519.5 263.3" style="enable-background:new 0 0 519.5 263.3;" xml:space="preserve">
<style type="text/css">
	.st0{fill:#FFFFFF;}
	.st1{fill:#0055FF;}
    .text-logo {
        fill: #FFFFFF;
        font-family: 'Montserrat', 'Inter', 'Roboto', sans-serif;
        font-size: 80px;
        font-weight: 800;
        letter-spacing: 0.20em;
    }
</style>
<title>Solution_logo_ru</title>

<!-- Roof with Chimney -->
<path class="st0" d="M361.5,83.9l-30.8-25.2V21.6c0-1.5-1.9-2.8-4.3-2.8h-18.3c-2.4,0-4.3,1.3-4.3,2.8v15.2l-30.6-25.1L260.8,1.6
	c-2.2-2.1-5.8-2.1-8,0l-88.2,72.2l-12.4,10.1c-5.6,4.6,2.4,12.5,8,8l88.2-72.2l8.4-6.9l84.3,68.9l12.4,10.1
	C359,96.4,367,88.5,361.5,83.9z"/>

<!-- Blue Windows -->
<rect x="244.8" y="76.4" class="st1" width="9.5" height="9.5"/>
<rect x="244.8" y="62.5" class="st1" width="9.5" height="9.5"/>
<rect x="259.3" y="76.4" class="st1" width="9.5" height="9.5"/>
<rect x="259.3" y="62.5" class="st1" width="9.5" height="9.5"/>

<!-- Bottom Line -->
<path class="st0" d="M357.5,208.4H156.2c-7.2,0-7.3,11.3,0,11.3h201.3C364.7,219.7,364.7,208.4,357.5,208.4z"/>

<!-- Text СОЛЮШН -->
<!-- Positioned roughly in the vertical middle between the roof and the bottom line -->
<text x="265" y="170" text-anchor="middle" class="text-logo">СОЛЮШН</text>

</svg>
